<svg xmlns="http://www.w3.org/2000/svg" width="364.53" height="354.134" viewBox="0 0 364.53 354.134">
  <g id="n3-01" transform="translate(-32.624 86.938)">
    <path id="Path_243912" data-name="Path 243912" d="M68.6,127.064c9.879-5.545,20.639-9.936,30.351-15.042,16.666-8.772,33.1-18.065,48.938-28.262,21.188-13.643,42.49-24.284,67.573-28.581a166.634,166.634,0,0,1,83.889,7.049c.245.089.486.172.731.261,21.167,7.712,40.605,20.8,54.3,38.841,15.93,20.989,23.214,46.7,22.295,72.878-.235,6.688-.82,13.356-1.587,20-8.067,69.923-99.057,76.647-136.707,74.408S125.362,242.8,105.261,245.309c-21.778,2.715-45.78-4.971-60.143-21.987-17.152-20.316-15.387-51.486-2.135-73.368,6.192-10.223,15.439-17.162,25.62-22.879Z" transform="translate(0 -1.768)" fill="#e1edfa" opacity="0.23"/>
    <rect id="Rectangle_25761" data-name="Rectangle 25761" width="56.781" height="69.244" transform="translate(292.744 60.589)" fill="none" stroke="#001e6c" stroke-linecap="round" stroke-linejoin="round" stroke-width="1"/>
    <rect id="Rectangle_25762" data-name="Rectangle 25762" width="49.361" height="60.195" transform="translate(296.456 65.116)" fill="none" stroke="#001e6c" stroke-linecap="round" stroke-linejoin="round" stroke-width="1"/>
    <rect id="Rectangle_25763" data-name="Rectangle 25763" width="17.502" height="21.344" transform="translate(312.386 84.539)" fill="none" stroke="#001e6c" stroke-linecap="round" stroke-linejoin="round" stroke-width="1"/>
    <line id="Line_454" data-name="Line 454" y1="88.359" transform="translate(158.783 52.371)" fill="none" stroke="#001e6c" stroke-linecap="round" stroke-linejoin="round" stroke-width="1"/>
    <path id="Path_243913" data-name="Path 243913" d="M52.06,277.023h116v-44.8" transform="translate(-9.277 -87.533)" fill="none" stroke="#001e6c" stroke-linecap="round" stroke-linejoin="round" stroke-width="1"/>
    <line id="Line_455" data-name="Line 455" y1="64.425" transform="translate(279.691 52.794)" fill="none" stroke="#001e6c" stroke-linecap="round" stroke-linejoin="round" stroke-width="1"/>
    <path id="Path_243914" data-name="Path 243914" d="M283.63,62.79V196.056h116V126.813" transform="translate(-119.939 -6.566)" fill="none" stroke="#001e6c" stroke-linecap="round" stroke-linejoin="round" stroke-width="1"/>
    <line id="Line_456" data-name="Line 456" y2="1.525" transform="translate(163.691 52.371)" fill="none" stroke="#001e6c" stroke-linecap="round" stroke-linejoin="round" stroke-width="1"/>
    <rect id="Rectangle_25764" data-name="Rectangle 25764" width="8.458" height="9.55" transform="translate(83.66 245.561)" fill="#fff" stroke="#001e6c" stroke-linecap="round" stroke-linejoin="round" stroke-width="1"/>
    <rect id="Rectangle_25765" data-name="Rectangle 25765" width="62.42" height="42.099" transform="translate(56.682 204.433)" fill="#fff" stroke="#001e6c" stroke-linecap="round" stroke-linejoin="round" stroke-width="1"/>
    <rect id="Rectangle_25766" data-name="Rectangle 25766" width="58.634" height="38.465" transform="translate(58.572 206.25)" fill="#9ebedf" stroke="#001e6c" stroke-linecap="round" stroke-linejoin="round" stroke-width="1"/>
    <path id="Path_243915" data-name="Path 243915" d="M313.36,340.04H277.187a7.2,7.2,0,0,0-7.043,5.722L260.02,394.1H310.9l9.508-45.383a7.2,7.2,0,0,0-7.043-8.672Z" transform="translate(-108.656 -139.058)" fill="#001e6c" stroke="#001e6c" stroke-linecap="round" stroke-linejoin="round" stroke-width="1"/>
    <path id="Path_243916" data-name="Path 243916" d="M557.765,237.67s-2.329,6.406-7.278,7.278-13.685-8.735-8.15-13.685S555.436,234.177,557.765,237.67Z" transform="translate(-242.721 -86.316)" fill="#9ebedf" stroke="#001e6c" stroke-linecap="round" stroke-linejoin="round" stroke-width="1"/>
    <path id="Path_243917" data-name="Path 243917" d="M583.385,182.263s-7.278,17.757-4.365,26.492,20.963,15.142,26.205,3.785-6.406-27.37-10.771-30.863-9.607-2.329-11.064.585Z" transform="translate(-260.771 -62.351)" fill="#9ebedf" stroke="#001e6c" stroke-linecap="round" stroke-linejoin="round" stroke-width="1"/>
    <path id="Path_243918" data-name="Path 243918" d="M656.476,196.955s-12.521,11.356-13.977,22.707,6.986,15.429,15.721,13.977,13.1-23.584,10.479-33.771-12.228-2.913-12.228-2.913Z" transform="translate(-291.356 -69.477)" fill="#9ebedf" stroke="#001e6c" stroke-linecap="round" stroke-linejoin="round" stroke-width="1"/>
    <path id="Path_243919" data-name="Path 243919" d="M660.534,319.71s-13.977.585-14.557,7.278,6.114,8.15,12.808,2.329S666.356,320,660.534,319.71Z" transform="translate(-293.08 -129.343)" fill="#9ebedf" stroke="#001e6c" stroke-linecap="round" stroke-linejoin="round" stroke-width="1"/>
    <path id="Path_243920" data-name="Path 243920" d="M646.45,331.3s11.012-5.038,15.972-5.916" transform="translate(-293.323 -132.052)" fill="none" stroke="#001e6c" stroke-linecap="round" stroke-linejoin="round" stroke-width="1"/>
    <path id="Path_243921" data-name="Path 243921" d="M663.576,397.85s-10.265-9.5-15.423-5.2-1.472,10.082,7.378,10.73S667.476,402.183,663.576,397.85Z" transform="translate(-293.01 -163.666)" fill="#9ebedf" stroke="#001e6c" stroke-linecap="round" stroke-linejoin="round" stroke-width="1"/>
    <path id="Path_243922" data-name="Path 243922" d="M648.45,396.15s11.34,4.261,15.455,7.158" transform="translate(-294.279 -165.872)" fill="none" stroke="#001e6c" stroke-linecap="round" stroke-linejoin="round" stroke-width="1"/>
    <path id="Path_243923" data-name="Path 243923" d="M574.048,390.3s14.15-13.095,21.261-7.158,2.026,13.9-10.171,14.786S568.676,396.278,574.048,390.3Z" transform="translate(-257.631 -158.92)" fill="#9ebedf" stroke="#001e6c" stroke-linecap="round" stroke-linejoin="round" stroke-width="1"/>
    <path id="Path_243924" data-name="Path 243924" d="M599.928,387.96s-15.627,5.869-21.308,9.868" transform="translate(-260.908 -161.958)" fill="none" stroke="#001e6c" stroke-linecap="round" stroke-linejoin="round" stroke-width="1"/>
    <path id="Path_243925" data-name="Path 243925" d="M591.325,341.127s-1.457,6.986-6.694,9.607-14.557-2.913-9.607-11.356,13.685-1.749,16.306,1.749Z" transform="translate(-258.519 -136.787)" fill="#9ebedf" stroke="#001e6c" stroke-linecap="round" stroke-linejoin="round" stroke-width="1"/>
    <path id="Path_243926" data-name="Path 243926" d="M562.374,301.615s-2.621-5.822-12.813-2.036-14.264,9.607-7.863,11.643,20.671-9.607,20.671-9.607Z" transform="translate(-241.796 -119.111)" fill="#9ebedf" stroke="#001e6c" stroke-linecap="round" stroke-linejoin="round" stroke-width="1"/>
    <path id="Path_243927" data-name="Path 243927" d="M565.15,304.14s-10.792,1.17-16.63,6.125" transform="translate(-246.524 -121.902)" fill="none" stroke="#001e6c" stroke-linecap="round" stroke-linejoin="round" stroke-width="1"/>
    <path id="Path_243928" data-name="Path 243928" d="M639.87,164.426s1.749,4.078,5.242,3.2,4.365-6.114,9.9-4.657,10.192,7.863,10.192,4.95-6.986-10.479-14.849-10.479-10.192,3.2-10.479,6.986Z" transform="translate(-290.178 -51.797)" fill="#9ebedf" stroke="#001e6c" stroke-linecap="round" stroke-linejoin="round" stroke-width="1"/>
    <path id="Path_243929" data-name="Path 243929" d="M584.11,304.5s12.536-2.407,17.757,11.513a39.234,39.234,0,0,1,1.311,4.261" transform="translate(-263.532 -122)" fill="none" stroke="#001e6c" stroke-linecap="round" stroke-linejoin="round" stroke-width="1"/>
    <path id="Path_243930" data-name="Path 243930" d="M684.32,275.785s2.621-5.822,12.813-2.036S711.4,283.356,705,285.393s-20.671-9.607-20.671-9.607Z" transform="translate(-311.42 -106.768)" fill="#9ebedf" stroke="#001e6c" stroke-linecap="round" stroke-linejoin="round" stroke-width="1"/>
    <path id="Path_243931" data-name="Path 243931" d="M688.78,279.546s10.505-.585,15.465,5.545" transform="translate(-313.551 -110.142)" fill="none" stroke="#001e6c" stroke-linecap="round" stroke-linejoin="round" stroke-width="1"/>
    <path id="Path_243932" data-name="Path 243932" d="M676.378,278.674a16.141,16.141,0,0,0-8.678,1.18" transform="translate(-303.478 -109.656)" fill="none" stroke="#001e6c" stroke-linecap="round" stroke-linejoin="round" stroke-width="1"/>
    <path id="Path_243933" data-name="Path 243933" d="M574.325,251.439c-6.145-6.276-12.212-7.221-12.212-7.221s-8.965-2.37-12.463.835" transform="translate(-247.064 -92.863)" fill="none" stroke="#001e6c" stroke-linecap="round" stroke-linejoin="round" stroke-width="1"/>
    <line id="Line_457" data-name="Line 457" x1="0.548" y1="2.433" transform="translate(327.961 123.891)" fill="none" stroke="#001e6c" stroke-linecap="round" stroke-linejoin="round" stroke-width="1"/>
    <path id="Path_243934" data-name="Path 243934" d="M614.006,328.129s1.305-50.139,0-65.364-7.393-33.061-7.393-33.061l-6.2-27.7" transform="translate(-271.321 -73.092)" fill="none" stroke="#001e6c" stroke-linecap="round" stroke-linejoin="round" stroke-width="1"/>
    <line id="Line_458" data-name="Line 458" y1="2.407" x2="1.123" transform="translate(368.561 134.683)" fill="none" stroke="#001e6c" stroke-linecap="round" stroke-linejoin="round" stroke-width="1"/>
    <path id="Path_243935" data-name="Path 243935" d="M632.28,338.05s.433-45.733,2.177-58.786,8.7-33.5,8.7-33.5l10.683-22.885" transform="translate(-286.551 -83.07)" fill="none" stroke="#001e6c" stroke-linecap="round" stroke-linejoin="round" stroke-width="1"/>
    <path id="Path_243936" data-name="Path 243936" d="M642.068,336.71s-3.044,26.221-4.788,55.8" transform="translate(-288.941 -137.467)" fill="none" stroke="#001e6c" stroke-linecap="round" stroke-linejoin="round" stroke-width="1"/>
    <path id="Path_243937" data-name="Path 243937" d="M603.019,396.615s.872-41.817-.872-47.471-4.657-3.164-4.657-3.164-8.051.945-10.97,5.613" transform="translate(-264.684 -141.635)" fill="none" stroke="#001e6c" stroke-linecap="round" stroke-linejoin="round" stroke-width="1"/>
    <path id="Path_243938" data-name="Path 243938" d="M621.95,341.11c2.276,12.755.178,53.486.178,53.486" transform="translate(-281.615 -139.569)" fill="none" stroke="#001e6c" stroke-linecap="round" stroke-linejoin="round" stroke-width="1"/>
    <path id="Path_243939" data-name="Path 243939" d="M652.667,283.71a18.123,18.123,0,0,0-6.61,8.965c-5.221,13.92-4.626,74.507-4.626,74.507" transform="translate(-290.915 -112.139)" fill="none" stroke="#001e6c" stroke-linecap="round" stroke-linejoin="round" stroke-width="1"/>
    <path id="Path_243940" data-name="Path 243940" d="M599.81,262a41.152,41.152,0,0,1,7.383,13.34c6.96,20.013,9.57,71.833,8.265,81.4" transform="translate(-271.035 -101.764)" fill="none" stroke="#001e6c" stroke-linecap="round" stroke-linejoin="round" stroke-width="1"/>
    <path id="Path_243941" data-name="Path 243941" d="M633.006,297.87c-.423,25.255-.726,76.016-.726,76.016" transform="translate(-286.551 -118.906)" fill="none" stroke="#001e6c" stroke-linecap="round" stroke-linejoin="round" stroke-width="1"/>
    <path id="Path_243942" data-name="Path 243942" d="M633.77,229.855c.287-16.7.627-33.045.961-41.838.872-22.624,2.219-21.355,2.219-21.355s1.608-5.08,10.656-4.5" transform="translate(-287.263 -54.034)" fill="none" stroke="#001e6c" stroke-linecap="round" stroke-linejoin="round" stroke-width="1"/>
    <path id="Path_243943" data-name="Path 243943" d="M607.8,316.209s-7.278-6.49-4.365-9.685,20.963-5.534,26.205-1.384-6.406,10-10.771,11.278-9.607.851-11.064-.214Z" transform="translate(-272.44 -121.315)" fill="#9ebedf" stroke="#001e6c" stroke-linecap="round" stroke-linejoin="round" stroke-width="1"/>
    <path id="Path_243944" data-name="Path 243944" d="M625.162,318.2a13.1,13.1,0,0,0-.162,1.937" transform="translate(-283.072 -128.621)" fill="none" stroke="#001e6c" stroke-linecap="round" stroke-linejoin="round" stroke-width="1"/>
    <path id="Path_243945" data-name="Path 243945" d="M628.389,303.68a33.434,33.434,0,0,0-1.869,4.819" transform="translate(-283.799 -121.682)" fill="none" stroke="#001e6c" stroke-linecap="round" stroke-linejoin="round" stroke-width="1"/>
    <path id="Path_243946" data-name="Path 243946" d="M607.8,397.489s-7.278-6.49-4.365-9.685,20.963-5.535,26.205-1.384-6.406,10-10.771,11.278-9.607.851-11.064-.214Z" transform="translate(-272.44 -160.157)" fill="#9ebedf" stroke="#001e6c" stroke-linecap="round" stroke-linejoin="round" stroke-width="1"/>
    <path id="Path_243947" data-name="Path 243947" d="M627.663,384.97S625,390.3,625,394.483" transform="translate(-283.072 -160.529)" fill="none" stroke="#001e6c" stroke-linecap="round" stroke-linejoin="round" stroke-width="1"/>
    <path id="Path_243948" data-name="Path 243948" d="M619.669,367.018s-4.939-4.407-2.966-6.573,14.233-3.759,17.789-.94-4.349,6.793-7.315,7.66-6.521.58-7.513-.146Z" transform="translate(-278.885 -147.636)" fill="#9ebedf" stroke="#001e6c" stroke-linecap="round" stroke-linejoin="round" stroke-width="1"/>
    <path id="Path_243949" data-name="Path 243949" d="M633.156,358.52a17.935,17.935,0,0,0-1.807,6.459" transform="translate(-286.107 -147.889)" fill="none" stroke="#001e6c" stroke-linecap="round" stroke-linejoin="round" stroke-width="1"/>
    <path id="Path_243950" data-name="Path 243950" d="M223.3,374.69s-6.088,9.523-5.879,9.941,4.14,5.075,4.454,5.279a8.073,8.073,0,0,0,2.172.1l3.107-2.59a2.507,2.507,0,0,0-.308-1.138c-.308-.517-1.243-.621-1.243-.621s1.655-4.036,1.551-5.075-.3-4.151-.3-4.151Z" transform="translate(-88.299 -155.616)" fill="#fff" stroke="#001e6c" stroke-linecap="round" stroke-linejoin="round" stroke-width="1"/>
    <line id="Line_459" data-name="Line 459" x1="2.073" y2="2.172" transform="translate(135.23 230.049)" fill="none" stroke="#001e6c" stroke-linecap="round" stroke-linejoin="round" stroke-width="1"/>
    <path id="Path_243951" data-name="Path 243951" d="M227.643,270.51s20.039,34.335,20.039,34.8-17.606,21.344-17.606,21.344l-3.55-1.749,7.759-20.995L224.16,296.9l3.488-26.388Z" transform="translate(-91.519 -105.831)" fill="#fff" stroke="#001e6c" stroke-linecap="round" stroke-linejoin="round" stroke-width="1"/>
    <path id="Path_243952" data-name="Path 243952" d="M228.3,301.75l4.678,15.053-5.555-3.655Z" transform="translate(-93.077 -120.76)" fill="#001e6c" stroke="#001e6c" stroke-linecap="round" stroke-linejoin="round" stroke-width="1"/>
    <path id="Path_243953" data-name="Path 243953" d="M252.218,329.991l-8.678,1.655,4.678-3.1" transform="translate(-100.781 -133.567)" fill="none" stroke="#001e6c" stroke-linecap="round" stroke-linejoin="round" stroke-width="1"/>
    <line id="Line_460" data-name="Line 460" x2="4.663" y2="1.666" transform="translate(135.893 216.63)" fill="none" stroke="#001e6c" stroke-linecap="round" stroke-linejoin="round" stroke-width="1"/>
    <path id="Path_243954" data-name="Path 243954" d="M176.195,276.652l-2.449,22.305.491,26.717H131.872l-.736-12.254s-13.727-42.281-13.606-43.754,22.879-12.625,22.879-12.625l19.24-.611,17.037,7.351.12,6" transform="translate(-40.563 -99.102)" fill="#fff" stroke="#001e6c" stroke-linecap="round" stroke-linejoin="round" stroke-width="1"/>
    <path id="Path_243955" data-name="Path 243955" d="M176.039,263.575,180,268.368l-2.7,52.478,5,5.832,6.245-6.459L182.5,268.572l1.457-7.08-2.292-5.832-10.2.835Z" transform="translate(-66.335 -98.734)" fill="#465def" stroke="#001e6c" stroke-linecap="round" stroke-linejoin="round" stroke-width="1"/>
    <path id="Path_243956" data-name="Path 243956" d="M159.47,223.8l2.574,12.625,9.805,8.333,6.5-5.394-.245-6.375H175.28l-12.254-6.124Z" transform="translate(-60.606 -83.509)" fill="#fff" stroke="#001e6c" stroke-linecap="round" stroke-linejoin="round" stroke-width="1"/>
    <path id="Path_243957" data-name="Path 243957" d="M187.4,254.564l2.083,9.315,5.759-9.195-3.676-6,.125,2.574Z" transform="translate(-73.953 -95.399)" fill="#fff" stroke="#001e6c" stroke-linecap="round" stroke-linejoin="round" stroke-width="1"/>
    <path id="Path_243958" data-name="Path 243958" d="M161.48,247.98l-3.19,5.634,12.259,10.542,1.1-8.944Z" transform="translate(-60.042 -95.064)" fill="#fff" stroke="#001e6c" stroke-linecap="round" stroke-linejoin="round" stroke-width="1"/>
    <path id="Path_243959" data-name="Path 243959" d="M154.086,191.745s-1.321-2.95-2.642-1.525.2,5.289,1.932,6.3a3.264,3.264,0,0,0,2.846.506s2.95,4.882,3.561,5.289,9.764,4.574,10.98,4.981,5.289-1.018,6.1-2.135.2-12.2,0-15.455-2.438-16.066-2.846-16.776.407-8.234-1.525-8.234a8.88,8.88,0,0,0-3.764,1.018s1.222-2.235-.2-1.525a70.847,70.847,0,0,1-11.795,5.388c-8.135,3.049-5.493,8.035-5.289,8.542s2.642,13.627,2.642,13.627Z" transform="translate(-56.495 -54.958)" fill="#fff" stroke="#001e6c" stroke-linecap="round" stroke-linejoin="round" stroke-width="1"/>
    <path id="Path_243960" data-name="Path 243960" d="M156.848,216.741s-.073-.157-.2-.381Z" transform="translate(-59.258 -79.954)" fill="none" stroke="#001e6c" stroke-linecap="round" stroke-linejoin="round" stroke-width="1"/>
    <path id="Path_243961" data-name="Path 243961" d="M173.948,172.7c-.24-1.462.345-8-1.457-8a8.88,8.88,0,0,0-3.765,1.018s1.222-2.235-.2-1.525a70.846,70.846,0,0,1-11.795,5.388c-8.135,3.049-5.493,8.035-5.289,8.542s2.642,13.627,2.642,13.627l1.833-.611s-1.425-4.271-.71-4.981,2.036-1.525,2.036-1.932-1.728-4.271-.71-5.388c.877-.966,13.9-5.044,17.423-6.135Z" transform="translate(-56.495 -54.958)" fill="#001e6c" stroke="#001e6c" stroke-linecap="round" stroke-linejoin="round" stroke-width="1"/>
    <path id="Path_243962" data-name="Path 243962" d="M189.2,202.09l1.733,11.6-2.746-.715" transform="translate(-74.33 -73.135)" fill="none" stroke="#001e6c" stroke-linecap="round" stroke-linejoin="round" stroke-width="1"/>
    <path id="Path_243963" data-name="Path 243963" d="M177.516,203.554s-3.66-.506-5.7.71" transform="translate(-66.507 -73.784)" fill="none" stroke="#001e6c" stroke-linecap="round" stroke-linejoin="round" stroke-width="2"/>
    <path id="Path_243964" data-name="Path 243964" d="M191.5,194.974s.407-3.357,2.95-2.235" transform="translate(-75.912 -68.557)" fill="none" stroke="#001e6c" stroke-linecap="round" stroke-linejoin="round" stroke-width="2"/>
    <path id="Path_243965" data-name="Path 243965" d="M177.67,227.8a18.4,18.4,0,0,0,4.777,1.222" transform="translate(-69.303 -85.421)" fill="none" stroke="#001e6c" stroke-linecap="round" stroke-linejoin="round" stroke-width="1"/>
    <path id="Path_243966" data-name="Path 243966" d="M179.88,208.762c0,.674-.318,1.222-.71,1.222s-.71-.548-.71-1.222.318-1.222.71-1.222S179.88,208.088,179.88,208.762Z" transform="translate(-69.68 -75.739)" fill="#001e6c" stroke="#001e6c" stroke-linecap="round" stroke-linejoin="round" stroke-width="1"/>
    <path id="Path_243967" data-name="Path 243967" d="M196.62,203.9c0,.674-.318,1.222-.71,1.222s-.71-.548-.71-1.222.319-1.222.71-1.222S196.62,203.228,196.62,203.9Z" transform="translate(-77.68 -73.416)" fill="#001e6c" stroke="#001e6c" stroke-linecap="round" stroke-linejoin="round" stroke-width="1"/>
    <path id="Path_243968" data-name="Path 243968" d="M177.182,243.478s-1.425-2.438-1.018-2.543,5.493-1.629,5.388-2.438-1.629-1.525-2.846-1.222-7.425,1.525-7.221,2.438a67.457,67.457,0,0,0,2.846,7.727c.71,1.321,1.525,12.5,1.525,12.5h5.185l.2-3.253s2.642-.506,2.95-1.222a9.43,9.43,0,0,0,.1-2.846s2.339-.407,2.339-.914.71-5.085,0-5.7-5.7-3.764-6.61-3.764a8.574,8.574,0,0,0-2.846,1.222Z" transform="translate(-66.345 -89.914)" fill="#fff" stroke="#001e6c" stroke-linecap="round" stroke-linejoin="round" stroke-width="1"/>
    <path id="Path_243969" data-name="Path 243969" d="M196.04,264.423l.1-2.031.914-.512" transform="translate(-78.082 -101.707)" fill="none" stroke="#001e6c" stroke-linecap="round" stroke-linejoin="round" stroke-width="1"/>
    <line id="Line_461" data-name="Line 461" x1="2.135" y2="1.425" transform="translate(108.701 153.563)" fill="none" stroke="#001e6c" stroke-linecap="round" stroke-linejoin="round" stroke-width="1"/>
    <path id="Path_243970" data-name="Path 243970" d="M141.453,282.154l11.153,18.875.982-20.258h5.185s3.268,20.869,4,26.017.611,10.416-.12,11.523-4,4.751-5.226,4.751-4.944-2.057-5.555-3.039c-.313-.5-7.952-4.725-14.458-11.461A145.961,145.961,0,0,1,124.87,292.92" transform="translate(-44.071 -110.734)" fill="#fff" stroke="#001e6c" stroke-linecap="round" stroke-linejoin="round" stroke-width="1"/>
    <line id="Line_462" data-name="Line 462" x1="1.347" y2="12.014" transform="translate(107.187 190.294)" fill="none" stroke="#001e6c" stroke-linecap="round" stroke-linejoin="round" stroke-width="1"/>
    <line id="Line_463" data-name="Line 463" x2="5.514" transform="translate(109.27 173.012)" fill="none" stroke="#001e6c" stroke-linecap="round" stroke-linejoin="round" stroke-width="1"/>
    <path id="Path_243971" data-name="Path 243971" d="M144.99,389.05v28.466h43.132l-.768-28.466Z" transform="translate(-53.686 -162.479)" fill="#001e6c" stroke="#001e6c" stroke-linecap="round" stroke-linejoin="round" stroke-width="1"/>
    <path id="Path_243972" data-name="Path 243972" d="M379.267,181.972s-6.375,1.718-8.093,5.884-.491,5.028-.12,4.9,1.227-1.718,1.227-1.718-1.347,3.8.366,5.394,4.537,3.8,4.537,3.8a27.338,27.338,0,0,1-1.838,7.973c-1.472,3.065-3.556,6.5-2.454,7.847s2.454-.611,2.454-.611a7.971,7.971,0,0,0,5.519,4.167c4.292,1.1,13.236,2.647,16.917,2.156a12.685,12.685,0,0,0,6.14-2.647s-1.1,2.083.856.856,3.19-2.819,5.148-7.237a31.943,31.943,0,0,0,2.209-16.8c-.982-5.394-5.764-9.931-8.949-12.51a23.53,23.53,0,0,0-15.575-4.412c-5.884.611-8.338,2.945-8.338,2.945Z" transform="translate(-161.348 -62.065)" fill="#001e6c" stroke="#001e6c" stroke-linecap="round" stroke-linejoin="round" stroke-width="1"/>
    <path id="Path_243973" data-name="Path 243973" d="M436.988,277.42l1.608,20.227-8.505,15.737-3.55-7.231Z" transform="translate(-188.233 -109.133)" fill="#465def" stroke="#001e6c" stroke-linecap="round" stroke-linejoin="round" stroke-width="1"/>
    <path id="Path_243974" data-name="Path 243974" d="M430.974,309.91,428.51,325.7l-2.12-3.483Z" transform="translate(-188.161 -124.659)" fill="#001e6c" stroke="#001e6c" stroke-linecap="round" stroke-linejoin="round" stroke-width="1"/>
    <path id="Path_243975" data-name="Path 243975" d="M341.48,425.712l1.739-19.512,51.21,2.094.872,17.068Z" transform="translate(-147.584 -170.674)" fill="#001e6c" stroke="#001e6c" stroke-linecap="round" stroke-linejoin="round" stroke-width="1"/>
    <path id="Path_243976" data-name="Path 243976" d="M368.58,198.11s-.794,5.221.115,6.124,5.446,3.065,5.446,3.065-.569-5.785-.569-6.124,3.174,7.827,4.767,8.85,4.537,3.519,4.537,3.519.454,1.363.908,1.248a6.037,6.037,0,0,0,1.472-1.133s3.289-.909,2.95,1.7-2.611,6.124-3.973,6.354a9.452,9.452,0,0,1-2.381.115,66.684,66.684,0,0,0-2.042,7.263c-.224,1.817-.339,2.156-.115,2.835s5.446,3.174,6.579,3.519,10.213,4.083,10.213,4.083L385.71,269.708l11.121,39.822s-16.677,3.858-32.565,2.381-22.467-4.877-22.467-4.877L355.3,268.8l-4.877-32.789,17.924-3.289.339-4.083s-4.422-1.248-5.9-4.422c-1.53-3.295-.115-9.074,0-10.777a35.571,35.571,0,0,0,0-6.015c-.225-1.927.679-7.941,5.785-9.3Z" transform="translate(-147.737 -71.233)" fill="#465def" stroke="#001e6c" stroke-linecap="round" stroke-linejoin="round" stroke-width="1"/>
    <path id="Path_243977" data-name="Path 243977" d="M377.77,325.11s12.3,7.378,12.792,7.545" transform="translate(-164.926 -131.923)" fill="none" stroke="#001e6c" stroke-linecap="round" stroke-linejoin="round" stroke-width="1"/>
    <line id="Line_464" data-name="Line 464" x2="8.693" y2="5.9" transform="translate(217.762 197.943)" fill="none" stroke="#001e6c" stroke-linecap="round" stroke-linejoin="round" stroke-width="1"/>
    <path id="Path_243978" data-name="Path 243978" d="M401.819,234.571c-1.916-.893-4.386-2.2-4.542-2.663-.224-.679-.115-1.023.115-2.835a66.685,66.685,0,0,1,2.042-7.263,9.454,9.454,0,0,0,2.381-.115c1.363-.225,3.629-3.744,3.973-6.354s-2.95-1.7-2.95-1.7a6.012,6.012,0,0,1-1.472,1.133c-.454.115-.908-1.248-.908-1.248s-2.95-2.5-4.537-3.519-4.767-9.189-4.767-8.85.569,6.124.569,6.124-4.537-2.156-5.446-3.065-.115-6.124-.115-6.124c-5.106,1.363-6.015,7.372-5.785,9.3a35.569,35.569,0,0,1,0,6.015c-.115,1.7-1.53,7.482,0,10.777,1.472,3.174,5.9,4.422,5.9,4.422l-.339,4.083-5.012.919L378.59,247l18.525,1.311,4.71-13.758Z" transform="translate(-165.318 -71.223)" fill="#fff" stroke="#001e6c" stroke-linecap="round" stroke-linejoin="round" stroke-width="1"/>
    <line id="Line_465" data-name="Line 465" x1="0.157" y2="3.519" transform="translate(220.461 161.484)" fill="none" stroke="#001e6c" stroke-linecap="round" stroke-linejoin="round" stroke-width="1"/>
    <path id="Path_243979" data-name="Path 243979" d="M408.591,249.72a11.76,11.76,0,0,1-6.511,2.757" transform="translate(-176.544 -95.896)" fill="none" stroke="#001e6c" stroke-linecap="round" stroke-linejoin="round" stroke-width="1"/>
    <path id="Path_243980" data-name="Path 243980" d="M391.13,238.817a6.087,6.087,0,0,0,6.354-1.587" transform="translate(-171.311 -89.927)" fill="none" stroke="#001e6c" stroke-linecap="round" stroke-linejoin="round" stroke-width="1"/>
    <path id="Path_243981" data-name="Path 243981" d="M391.744,217.25a6,6,0,0,1,0,1.927c-.136,1.514-2.861,5.514-2.036,5.926s1.54.24,3.19.376" transform="translate(-170.557 -80.379)" fill="none" stroke="#001e6c" stroke-linecap="round" stroke-linejoin="round" stroke-width="1"/>
    <path id="Path_243982" data-name="Path 243982" d="M388.608,220.34c0,.71-.355,1.29-.8,1.29s-.8-.574-.8-1.29.355-1.29.8-1.29S388.608,219.624,388.608,220.34Z" transform="translate(-169.342 -81.239)" fill="#001e6c"/>
    <path id="Path_243983" data-name="Path 243983" d="M403.168,221.86c0,.71-.355,1.29-.8,1.29s-.8-.574-.8-1.29.355-1.29.8-1.29S403.168,221.144,403.168,221.86Z" transform="translate(-176.3 -81.966)" fill="#001e6c"/>
    <path id="Path_243984" data-name="Path 243984" d="M385.85,215.239s1.838-1.347,3.31-.611" transform="translate(-168.788 -79.021)" fill="none" stroke="#001e6c" stroke-linecap="round" stroke-linejoin="round" stroke-width="1"/>
    <path id="Path_243985" data-name="Path 243985" d="M401.35,215.509s2.7-.365,3.681,1.838" transform="translate(-176.195 -79.536)" fill="none" stroke="#001e6c" stroke-linecap="round" stroke-linejoin="round" stroke-width="1"/>
    <path id="Path_243986" data-name="Path 243986" d="M319.628,269.332,317.518,284l-6.438,13.387-12.818-19.224a15.539,15.539,0,0,0-1.17-4.229c-.731-1.17-3.211-1.749-4.668-2.772s-2.48-4.229-3.644-3.065-.439,3.211,0,3.791,3.791,3.357,3.791,3.357l-8.171,2.626s-6.417-3.065-7-1.9,4.668,6.709,6.709,7.294,10.213-.731,10.213-.731,9.189,22.467,11.231,24.947,4.668,5.545,5.253,5.4,13.215-13.45,13.215-13.45l-4.391-30.106Z" transform="translate(-116.94 -104.559)" fill="#fff" stroke="#001e6c" stroke-linecap="round" stroke-linejoin="round" stroke-width="1"/>
    <path id="Path_243987" data-name="Path 243987" d="M297.167,289.47s-2.156-1.525-2.919-1.525-8.375,1.269-8.375,1.269-3.937-2.156-4.694-1.775" transform="translate(-118.768 -113.899)" fill="none" stroke="#001e6c" stroke-linecap="round" stroke-linejoin="round" stroke-width="1"/>
    <path id="Path_243988" data-name="Path 243988" d="M347.907,308.189c3.509-3.561,6.981-7.393,6.981-7.393L350.5,270.69l-2.109,14.672-6.438,13.387,5.957,9.44Z" transform="translate(-147.809 -105.917)" fill="#465def" stroke="#001e6c" stroke-linecap="round" stroke-linejoin="round" stroke-width="1"/>
    <path id="Path_243989" data-name="Path 243989" d="M442.857,295.148s.381-6.474,1.775-7.487,5.963-2.412,6.474-3.3,1.269-.506,1.143.637a5.282,5.282,0,0,1-1.906,2.919c-.381.125-2.287,1.269-2.287,1.269a14.805,14.805,0,0,0,1.906,1.394c.381.125,5.331,1.143,5.331,1.143s4.95-4.062,4.95-3.044-3.3,7.237-3.681,7.994-3.174,1.013-4.313,1.143-6.6.637-6.6.637-1.394,14.343-1.525,17.642A10.381,10.381,0,0,1,440.7,323.2c-1.143.762-7.487-4.694-7.362-6.725s7.994-18.149,7.994-18.149l1.525-3.174Z" transform="translate(-191.48 -112.216)" fill="#fff" stroke="#001e6c" stroke-linecap="round" stroke-linejoin="round" stroke-width="1"/>
    <path id="Path_243990" data-name="Path 243990" d="M454.63,303.531s1.2-2.485,2.976-2.1,7.106,1.013,7.106,1.013,2.412-3.174,3.425-3.3" transform="translate(-201.656 -119.513)" fill="none" stroke="#001e6c" stroke-linecap="round" stroke-linejoin="round" stroke-width="1"/>
    <path id="Path_243991" data-name="Path 243991" d="M550.55,340.04H514.377a7.2,7.2,0,0,0-7.043,5.722L497.21,394.1h50.875l9.508-45.383a7.2,7.2,0,0,0-7.043-8.672Z" transform="translate(-222.004 -139.058)" fill="#001e6c" stroke="#001e6c" stroke-linecap="round" stroke-linejoin="round" stroke-width="1"/>
    <path id="Path_243992" data-name="Path 243992" d="M484.648,336.171l-23.156,10.97-6.647,29.693s-2.882.11-2.992.888a11.666,11.666,0,0,0,.11,2.329s-1.995.11-2.214,1.885a11.11,11.11,0,0,0,.334,4.542c.334.888,3.655,4.986,4.652,5.1a18.915,18.915,0,0,1,2.548.444c.334.11,56.838,0,56.838,0a8.779,8.779,0,0,0,2.772-.663,2.477,2.477,0,0,0,.663-1.441s1.551-1.217,1.66-1.995-.553-5.54-.553-6.537,3.989-29.918,4.208-31.907a3.513,3.513,0,0,0-1-3.326,67.975,67.975,0,0,0-9.309-5.206c-2.658-1.107-11.789-5.153-11.789-5.153l-16.134.386Z" transform="translate(-199.282 -137.027)" fill="#fff" stroke="#001e6c" stroke-linecap="round" stroke-linejoin="round" stroke-width="1"/>
    <path id="Path_243993" data-name="Path 243993" d="M514.907,355.829c.569-.287,13.027-14.9,16.567-19.063a28.486,28.486,0,0,0-3.389-1.217l-15.617.334-4.579,2.36c1.19,3.775,4.746,13.466,5.467,15.262.888,2.214.888,2.658,1.551,2.329Z" transform="translate(-227.108 -136.912)" fill="#465def" stroke="#001e6c" stroke-linecap="round" stroke-linejoin="round" stroke-width="1"/>
    <path id="Path_243994" data-name="Path 243994" d="M503.308,271.484s-4.266,5.08-4.266,6.986.815,3.989-.089,5.08-5.989,3.446-4.991,4.715a12.065,12.065,0,0,0,2.538,2.266l-.183,2.9s1.812,7.075,2.814,7.44a18.848,18.848,0,0,0,4.172.271s3.989,15.872,4.991,16.055,13.079-13.257,13.079-13.257l-.47-5.341s4.715-7.712,5.989-11.247-1.269-10.886-4.9-14.243-10.975-3.9-13.7-3.629a11.2,11.2,0,0,0-4.991,1.995Z" transform="translate(-220.39 -105.312)" fill="#fff" stroke="#001e6c" stroke-linecap="round" stroke-linejoin="round" stroke-width="1"/>
    <path id="Path_243995" data-name="Path 243995" d="M506.98,288a4.456,4.456,0,0,1,3.973.71" transform="translate(-226.673 -114.097)" fill="none" stroke="#001e6c" stroke-linecap="round" stroke-linejoin="round" stroke-width="2"/>
    <path id="Path_243996" data-name="Path 243996" d="M510.709,295.209c-.219.668-.668,1.117-1,1.008s-.428-.736-.209-1.4.668-1.117,1-1.008S510.928,294.541,510.709,295.209Z" transform="translate(-227.823 -116.955)" fill="#001e6c" stroke="#001e6c" stroke-linecap="round" stroke-linejoin="round" stroke-width="1"/>
    <path id="Path_243997" data-name="Path 243997" d="M506.2,264.254s-8.344,1.451-6.349,3.086,12.969,4.537,15.329,5.352-3.989,2.266-3.086,2.992,2.72,4.172,2.72,4.172-.36,4.537-1.54,6.986-6.714,5.717-6.714,5.717-2.9-3.9-4.443-3.9-3.717.36-3.54,1.812.815,5.352.908,5.712-1.086,3.989.183,4.809,7.8-1.812,10.7-3.086,4.266-1.906,4.443-3.717,2.992-9.978,2.992-9.978a6.076,6.076,0,0,1,3.629-1c1.723.271,1.723,4.083.183,5.441a41.246,41.246,0,0,1-3.54,2.72l5.08,4.266s11.158-11.246,11.34-15.6-5.352-12.066-7.712-14.515-15.966-3.086-20.592-1.269Z" transform="translate(-222.654 -102.342)" fill="#001e6c" stroke="#001e6c" stroke-linecap="round" stroke-linejoin="round" stroke-width="1"/>
    <path id="Path_243998" data-name="Path 243998" d="M498.785,316.732s2.887-1.1,3.707-.945c1.525.287,3.007,1.906,2.475,3.148a5.372,5.372,0,0,1-2.282,2.715c-1.018.512-1.441.762-1.613.256a1.625,1.625,0,0,0-1.133-1.1c-.512-.084-.35.491-.35.491a32.839,32.839,0,0,0-.809-4.569Z" transform="translate(-222.755 -127.461)" fill="#fff" stroke="#001e6c" stroke-linecap="round" stroke-linejoin="round" stroke-width="1"/>
    <path id="Path_243999" data-name="Path 243999" d="M500.72,319.076a7.082,7.082,0,0,0,3.451-.976" transform="translate(-223.682 -128.573)" fill="none" stroke="#001e6c" stroke-linecap="round" stroke-linejoin="round" stroke-width="1"/>
    <path id="Path_244000" data-name="Path 244000" d="M457.04,420.86a8.945,8.945,0,0,1,6.427,4.877" transform="translate(-202.808 -177.68)" fill="none" stroke="#001e6c" stroke-linecap="round" stroke-linejoin="round" stroke-width="1"/>
    <path id="Path_244001" data-name="Path 244001" d="M462.55,416.62s3.764,1,4.986,2.548" transform="translate(-205.441 -175.654)" fill="none" stroke="#001e6c" stroke-linecap="round" stroke-linejoin="round" stroke-width="1"/>
    <path id="Path_244002" data-name="Path 244002" d="M550.463,381.22l-3.237,19.146s-5.1.888-5.1,2.438,2.772,5.54,2.772,5.54" transform="translate(-243.471 -158.737)" fill="none" stroke="#001e6c" stroke-linecap="round" stroke-linejoin="round" stroke-width="1"/>
    <line id="Line_466" data-name="Line 466" x1="0.204" y2="1.217" transform="translate(307.321 219.027)" fill="none" stroke="#001e6c" stroke-linecap="round" stroke-linejoin="round" stroke-width="1"/>
    <path id="Path_244003" data-name="Path 244003" d="M570,413.54a10.435,10.435,0,0,1,1.629.167" transform="translate(-256.789 -174.182)" fill="none" stroke="#001e6c" stroke-linecap="round" stroke-linejoin="round" stroke-width="1"/>
    <path id="Path_244004" data-name="Path 244004" d="M554.44,415.067a26.666,26.666,0,0,1,6.521-1.457" transform="translate(-249.353 -174.215)" fill="none" stroke="#001e6c" stroke-linecap="round" stroke-linejoin="round" stroke-width="1"/>
    <path id="Path_244005" data-name="Path 244005" d="M570.57,419.16a10.138,10.138,0,0,1,5.1,6.537" transform="translate(-257.061 -176.868)" fill="none" stroke="#001e6c" stroke-linecap="round" stroke-linejoin="round" stroke-width="1"/>
    <path id="Path_244006" data-name="Path 244006" d="M524.338,433.718s.334-2.438-2.658-6.318-5.874-4.208-6.647-3.879-21.825,7.978-21.825,7.978-12.964-7.425-14.071-6.871-8.088,9.195-8.088,9.195l53.293-.11Z" transform="translate(-209.503 -178.906)" fill="#fff" stroke="#001e6c" stroke-linecap="round" stroke-linejoin="round" stroke-width="1"/>
    <line id="Line_467" data-name="Line 467" y1="7.31" x2="6.981" transform="translate(264.534 247.613)" fill="none" stroke="#001e6c" stroke-linecap="round" stroke-linejoin="round" stroke-width="1"/>
    <line id="Line_468" data-name="Line 468" y1="5.649" x2="6.312" transform="translate(268.303 248.944)" fill="none" stroke="#001e6c" stroke-linecap="round" stroke-linejoin="round" stroke-width="1"/>
    <line id="Line_469" data-name="Line 469" y1="4.214" x2="4.323" transform="translate(273.175 250.824)" fill="none" stroke="#001e6c" stroke-linecap="round" stroke-linejoin="round" stroke-width="1"/>
    <line id="Line_470" data-name="Line 470" y1="1.441" x2="1.775" transform="translate(278.051 253.262)" fill="none" stroke="#001e6c" stroke-linecap="round" stroke-linejoin="round" stroke-width="1"/>
    <line id="Line_471" data-name="Line 471" y1="2.506" x2="0.36" transform="translate(266.831 216.035)" fill="none" stroke="#001e6c" stroke-linecap="round" stroke-linejoin="round" stroke-width="1"/>
    <line id="Line_472" data-name="Line 472" y1="33.139" x2="4.819" transform="translate(261.542 221.783)" fill="none" stroke="#001e6c" stroke-linecap="round" stroke-linejoin="round" stroke-width="1"/>
    <path id="Path_244007" data-name="Path 244007" d="M443.676,435.518s-.663-6.537-3.764-7.978-6.647.219-7.978.553-13.293,7.534-13.293,7.534l25.041-.11Z" transform="translate(-184.457 -180.595)" fill="#fff" stroke="#001e6c" stroke-linecap="round" stroke-linejoin="round" stroke-width="1"/>
    <path id="Path_244008" data-name="Path 244008" d="M424.994,431.3s-3.211-2.438-4.652-3.655-2.329-1.331-5.206-1-4.986,8.641-4.986,8.641H420.9Z" transform="translate(-180.4 -180.37)" fill="#fff" stroke="#001e6c" stroke-linecap="round" stroke-linejoin="round" stroke-width="1"/>
    <path id="Path_244009" data-name="Path 244009" d="M432.324,433.375s-3.989,4.433-3.545,4.762a7.31,7.31,0,0,0,2.548.219s3.655-2.772,3.764-3.545-2.772-1.441-2.772-1.441Z" transform="translate(-189.286 -183.658)" fill="#fff" stroke="#001e6c" stroke-linecap="round" stroke-linejoin="round" stroke-width="1"/>
    <path id="Path_244010" data-name="Path 244010" d="M420.593,427.076l-3.989,7.868-2.214-.444s2.438-7.534,2.772-8.312,2.1-1,3.655,0" transform="translate(-182.426 -179.907)" fill="#fff" stroke="#001e6c" stroke-linecap="round" stroke-linejoin="round" stroke-width="1"/>
    <path id="Path_244011" data-name="Path 244011" d="M415.126,426.718s-3.289-.371-3.78.4-1.206,8.244-1.206,8.244l2.214-.334,2.772-8.312Z" transform="translate(-180.395 -180.437)" fill="#fff" stroke="#001e6c" stroke-linecap="round" stroke-linejoin="round" stroke-width="1"/>
    <path id="Path_244012" data-name="Path 244012" d="M409.171,428.3s-2.626.877-2.736,1.587.052,6.124.052,6.124l1.859.151.82-7.863Z" transform="translate(-178.607 -181.235)" fill="#fff" stroke="#001e6c" stroke-linecap="round" stroke-linejoin="round" stroke-width="1"/>
    <path id="Path_244013" data-name="Path 244013" d="M402.847,432.8a19.612,19.612,0,0,0-2.736,2.35c-.162.439-1.53,1.968-.987,2.078s2.459-1.368,2.459-1.368l1.149-.491.11-2.569Z" transform="translate(-175.07 -183.386)" fill="#fff" stroke="#001e6c" stroke-linecap="round" stroke-linejoin="round" stroke-width="1"/>
    <line id="Line_473" data-name="Line 473" x1="342.616" transform="translate(33.124 255.037)" fill="none" stroke="#001e6c" stroke-linecap="round" stroke-linejoin="round" stroke-width="1"/>
    <rect id="Rectangle_25767" data-name="Rectangle 25767" width="37.379" height="1.091" transform="translate(225.688 253.946)" fill="#5089c6" stroke="#001e6c" stroke-linecap="round" stroke-linejoin="round" stroke-width="1"/>
    <path id="Path_244014" data-name="Path 244014" d="M348.994,385.64H304.3l7.122,30.246h44.694Z" transform="translate(-129.817 -160.849)" fill="#5089c6" stroke="#001e6c" stroke-linecap="round" stroke-linejoin="round" stroke-width="1"/>
    <path id="Path_244015" data-name="Path 244015" d="M349.669,413.109a2.819,2.819,0,1,1-2.819-2.819A2.821,2.821,0,0,1,349.669,413.109Z" transform="translate(-148.803 -172.629)" fill="#465def" stroke="#001e6c" stroke-linecap="round" stroke-linejoin="round" stroke-width="1"/>
    <path id="Path_244016" data-name="Path 244016" d="M100.67,413.409s-2.647-1.8-4.689-.36-2.287,8.657,0,11.184c1.316,1.451,4.809.24,4.809.24l.24-3.488s-2.2,2.209-3.368-.12c-.721-1.441-.36-4.809.961-5.409s2.527.721,2.527.721l-.48-2.767Z" transform="translate(-29.489 -173.68)" fill="#465def" stroke="#001e6c" stroke-linecap="round" stroke-linejoin="round" stroke-width="1"/>
    <path id="Path_244017" data-name="Path 244017" d="M109.26,391.33s4.375-1.854,4.375-5.388-2.188-3.535-2.527-6.062" transform="translate(-36.611 -158.097)" fill="none" stroke="#001e6c" stroke-linecap="round" stroke-linejoin="round" stroke-width="1"/>
    <path id="Path_244018" data-name="Path 244018" d="M119.243,379.56a4.119,4.119,0,0,0,1.854,3.7c2.188,1.681,1.18,4.375.167,5.722" transform="translate(-41.373 -157.944)" fill="none" stroke="#001e6c" stroke-linecap="round" stroke-linejoin="round" stroke-width="1"/>
    <path id="Path_244019" data-name="Path 244019" d="M120.55,374.471a3.521,3.521,0,0,1,1.681-1.681" transform="translate(-42.006 -154.708)" fill="none" stroke="#001e6c" stroke-linecap="round" stroke-linejoin="round" stroke-width="1"/>
    <rect id="Rectangle_25768" data-name="Rectangle 25768" width="16.29" height="20.232" transform="translate(70.513 234.805)" fill="#465def" stroke="#001e6c" stroke-linecap="round" stroke-linejoin="round" stroke-width="1"/>
    <path id="Path_244020" data-name="Path 244020" d="M123.3,108.38h-.768v-4.95H112.042v4.95h-.768A13.913,13.913,0,0,0,97.36,122.294v1.389h39.859v-1.389A13.913,13.913,0,0,0,123.3,108.38Z" transform="translate(-30.924 -25.987)" fill="#001e6c" stroke="#001e6c" stroke-linecap="round" stroke-linejoin="round" stroke-width="1"/>
    <line id="Line_474" data-name="Line 474" y1="164.563" transform="translate(86.365 -86.438)" fill="none" stroke="#001e6c" stroke-linecap="round" stroke-linejoin="round" stroke-width="1"/>
    <path id="Path_244021" data-name="Path 244021" d="M429.694,108.38h-.768v-4.95H418.432v4.95h-.768a13.913,13.913,0,0,0-13.915,13.915v1.389h39.859v-1.389A13.913,13.913,0,0,0,429.694,108.38Z" transform="translate(-177.342 -25.987)" fill="#001e6c" stroke="#001e6c" stroke-linecap="round" stroke-linejoin="round" stroke-width="1"/>
    <line id="Line_475" data-name="Line 475" y1="164.563" transform="translate(246.338 -86.438)" fill="none" stroke="#001e6c" stroke-linecap="round" stroke-linejoin="round" stroke-width="1"/>
    <path id="Path_244022" data-name="Path 244022" d="M326.99,149.83H301.5a5.779,5.779,0,0,0-5.78,5.78v10.75a5.779,5.779,0,0,0,5.78,5.78h20.055l4.574,5.649V172.14h.862a5.779,5.779,0,0,0,5.78-5.78V155.61A5.779,5.779,0,0,0,326.99,149.83Z" transform="translate(-125.716 -48.161)" fill="#fff" stroke="#001e6c" stroke-linecap="round" stroke-linejoin="round" stroke-width="1"/>
    <path id="Path_244023" data-name="Path 244023" d="M317.193,169.482a1.572,1.572,0,1,1-1.572-1.572A1.573,1.573,0,0,1,317.193,169.482Z" transform="translate(-134.476 -56.801)" fill="#ffaa4c" stroke="#001e6c" stroke-linecap="round" stroke-linejoin="round" stroke-width="1"/>
    <circle id="Ellipse_6502" data-name="Ellipse 6502" cx="1.572" cy="1.572" r="1.572" transform="translate(186.957 111.109)" fill="#ffaa4c" stroke="#001e6c" stroke-linecap="round" stroke-linejoin="round" stroke-width="1"/>
    <circle id="Ellipse_6503" data-name="Ellipse 6503" cx="1.572" cy="1.572" r="1.572" transform="translate(194.34 111.109)" fill="#ffaa4c" stroke="#001e6c" stroke-linecap="round" stroke-linejoin="round" stroke-width="1"/>
  </g>
</svg>
